<?xml version="1.0" encoding="UTF-8" standalone="no"?>
<!DOCTYPE svg PUBLIC "-//W3C//DTD SVG 1.0//EN" "http://www.w3.org/TR/2001/PR-SVG-20010719/DTD/svg10.dtd">
<svg width="56cm" height="24cm" viewBox="247 38 1107 465" xmlns="http://www.w3.org/2000/svg" xmlns:xlink="http://www.w3.org/1999/xlink">
  <g>
    <rect style="fill: #ffffff" x="248" y="155" width="233.3" height="28"/>
    <rect style="fill: none; fill-opacity:0; stroke-width: 2; stroke: #000000" x="248" y="155" width="233.3" height="28"/>
    <text font-size="16" style="fill: #000000;text-anchor:middle;font-family:sans-serif;font-style:normal;font-weight:700" x="364.65" y="174">TXTIOConverter</text>
    <rect style="fill: #ffffff" x="248" y="183" width="233.3" height="20"/>
    <rect style="fill: none; fill-opacity:0; stroke-width: 2; stroke: #000000" x="248" y="183" width="233.3" height="20"/>
    <text font-size="12.8" style="fill: #000000;text-anchor:start;font-family:monospace;font-style:normal;font-weight:normal" x="251" y="197">+types: Dictionary</text>
    <rect style="fill: #ffffff" x="248" y="203" width="233.3" height="100"/>
    <rect style="fill: none; fill-opacity:0; stroke-width: 2; stroke: #000000" x="248" y="203" width="233.3" height="100"/>
    <text font-size="12.8" style="fill: #000000;text-anchor:start;font-family:monospace;font-style:normal;font-weight:normal" x="251" y="217">+getFileTypeFromPath(aPath)</text>
    <text font-size="12.8" style="fill: #000000;text-anchor:start;font-family:monospace;font-style:normal;font-weight:normal" x="251" y="233">+getPossiblesTypes()</text>
    <text font-size="12.8" style="fill: #000000;text-anchor:start;font-family:monospace;font-style:normal;font-weight:normal" x="251" y="249">+initialize()</text>
    <text font-size="12.8" style="fill: #000000;text-anchor:start;font-family:monospace;font-style:normal;font-weight:normal" x="251" y="265">+readFromFile(aPath)</text>
    <text font-size="12.8" style="fill: #000000;text-anchor:start;font-family:monospace;font-style:normal;font-weight:normal" x="251" y="281">+readFromFile(aPath,fileType)</text>
    <text font-size="12.8" style="fill: #000000;text-anchor:start;font-family:monospace;font-style:normal;font-weight:normal" x="251" y="297">+writetoFile(godData,aPath)</text>
  </g>
  <g>
    <rect style="fill: #ffffff" x="562" y="138" width="177.5" height="28"/>
    <rect style="fill: none; fill-opacity:0; stroke-width: 2; stroke: #000000" x="562" y="138" width="177.5" height="28"/>
    <text font-size="16" style="fill: #000000;text-anchor:middle;font-family:sans-serif;font-style:normal;font-weight:700" x="650.75" y="157">TXTMainConverter</text>
    <rect style="fill: #ffffff" x="562" y="166" width="177.5" height="116"/>
    <rect style="fill: none; fill-opacity:0; stroke-width: 2; stroke: #000000" x="562" y="166" width="177.5" height="116"/>
    <text font-size="12.8" style="fill: #000000;text-anchor:start;font-family:monospace;font-style:normal;font-weight:normal" x="565" y="180">+append</text>
    <text font-size="12.8" style="fill: #000000;text-anchor:start;font-family:monospace;font-style:normal;font-weight:normal" x="565" y="196">+author</text>
    <text font-size="12.8" style="fill: #000000;text-anchor:start;font-family:monospace;font-style:normal;font-weight:normal" x="565" y="212">+contents</text>
    <text font-size="12.8" style="fill: #000000;text-anchor:start;font-family:monospace;font-style:normal;font-weight:normal" x="565" y="228">+date</text>
    <text font-size="12.8" style="fill: #000000;text-anchor:start;font-family:monospace;font-style:normal;font-weight:normal" x="565" y="244">+overwrite</text>
    <text font-size="12.8" style="fill: #000000;text-anchor:start;font-family:monospace;font-style:normal;font-weight:normal" x="565" y="260">+path</text>
    <text font-size="12.8" style="fill: #000000;text-anchor:start;font-family:monospace;font-style:normal;font-weight:normal" x="565" y="276">+title</text>
    <rect style="fill: #ffffff" x="562" y="282" width="177.5" height="36"/>
    <rect style="fill: none; fill-opacity:0; stroke-width: 2; stroke: #000000" x="562" y="282" width="177.5" height="36"/>
    <text font-size="12.8" style="fill: #000000;text-anchor:start;font-family:monospace;font-style:normal;font-weight:normal" x="565" y="296">+readFile()</text>
    <text font-size="12.8" style="fill: #000000;text-anchor:start;font-family:monospace;font-style:normal;font-weight:normal" x="565" y="312">+writeFile()</text>
  </g>
  <g>
    <rect style="fill: #ffffff" x="1174" y="129" width="167.7" height="28"/>
    <rect style="fill: none; fill-opacity:0; stroke-width: 2; stroke: #000000" x="1174" y="129" width="167.7" height="28"/>
    <text font-size="16" style="fill: #000000;text-anchor:middle;font-family:sans-serif;font-style:normal;font-weight:700" x="1257.85" y="148">TXTDocConverter</text>
    <rect style="fill: #ffffff" x="1174" y="157" width="167.7" height="8"/>
    <rect style="fill: none; fill-opacity:0; stroke-width: 2; stroke: #000000" x="1174" y="157" width="167.7" height="8"/>
    <rect style="fill: #ffffff" x="1174" y="165" width="167.7" height="52"/>
    <rect style="fill: none; fill-opacity:0; stroke-width: 2; stroke: #000000" x="1174" y="165" width="167.7" height="52"/>
    <text font-size="12.8" style="fill: #000000;text-anchor:start;font-family:monospace;font-style:normal;font-weight:normal" x="1177" y="179">+docHeader()</text>
    <text font-size="12.8" style="fill: #000000;text-anchor:start;font-family:monospace;font-style:normal;font-weight:normal" x="1177" y="195">+readFile()</text>
    <text font-size="12.8" style="fill: #000000;text-anchor:start;font-family:monospace;font-style:normal;font-weight:normal" x="1177" y="211">+writeFile()</text>
  </g>
  <g>
    <rect style="fill: #ffffff" x="817.3" y="39.8" width="171.85" height="28"/>
    <rect style="fill: none; fill-opacity:0; stroke-width: 2; stroke: #000000" x="817.3" y="39.8" width="171.85" height="28"/>
    <text font-size="16" style="fill: #000000;text-anchor:middle;font-family:sans-serif;font-style:normal;font-weight:700" x="903.225" y="58.8">TXTTextConverter</text>
    <rect style="fill: #ffffff" x="817.3" y="67.8" width="171.85" height="8"/>
    <rect style="fill: none; fill-opacity:0; stroke-width: 2; stroke: #000000" x="817.3" y="67.8" width="171.85" height="8"/>
    <rect style="fill: #ffffff" x="817.3" y="75.8" width="171.85" height="36"/>
    <rect style="fill: none; fill-opacity:0; stroke-width: 2; stroke: #000000" x="817.3" y="75.8" width="171.85" height="36"/>
    <text font-size="12.8" style="fill: #000000;text-anchor:start;font-family:monospace;font-style:normal;font-weight:normal" x="820.3" y="89.8">+readFile()</text>
    <text font-size="12.8" style="fill: #000000;text-anchor:start;font-family:monospace;font-style:normal;font-weight:normal" x="820.3" y="105.8">+writeFile()</text>
  </g>
  <g>
    <rect style="fill: #ffffff" x="1174.6" y="225.6" width="178" height="28"/>
    <rect style="fill: none; fill-opacity:0; stroke-width: 2; stroke: #000000" x="1174.6" y="225.6" width="178" height="28"/>
    <text font-size="16" style="fill: #000000;text-anchor:middle;font-family:sans-serif;font-style:normal;font-weight:700" x="1263.6" y="244.6">TXTDocxConverter</text>
    <rect style="fill: #ffffff" x="1174.6" y="253.6" width="178" height="8"/>
    <rect style="fill: none; fill-opacity:0; stroke-width: 2; stroke: #000000" x="1174.6" y="253.6" width="178" height="8"/>
    <rect style="fill: #ffffff" x="1174.6" y="261.6" width="178" height="52"/>
    <rect style="fill: none; fill-opacity:0; stroke-width: 2; stroke: #000000" x="1174.6" y="261.6" width="178" height="52"/>
    <text font-size="12.8" style="fill: #000000;text-anchor:start;font-family:monospace;font-style:normal;font-weight:normal" x="1177.6" y="275.6">+docxHeader()</text>
    <text font-size="12.8" style="fill: #000000;text-anchor:start;font-family:monospace;font-style:normal;font-weight:normal" x="1177.6" y="291.6">+readFile()</text>
    <text font-size="12.8" style="fill: #000000;text-anchor:start;font-family:monospace;font-style:normal;font-weight:normal" x="1177.6" y="307.6">+writeFile()</text>
  </g>
  <g>
    <rect style="fill: #ffffff" x="1000.9" y="278.4" width="160.8" height="28"/>
    <rect style="fill: none; fill-opacity:0; stroke-width: 2; stroke: #000000" x="1000.9" y="278.4" width="160.8" height="28"/>
    <text font-size="16" style="fill: #000000;text-anchor:middle;font-family:sans-serif;font-style:normal;font-weight:700" x="1081.3" y="297.4">TXTRtfConverter</text>
    <rect style="fill: #ffffff" x="1000.9" y="306.4" width="160.8" height="8"/>
    <rect style="fill: none; fill-opacity:0; stroke-width: 2; stroke: #000000" x="1000.9" y="306.4" width="160.8" height="8"/>
    <rect style="fill: #ffffff" x="1000.9" y="314.4" width="160.8" height="52"/>
    <rect style="fill: none; fill-opacity:0; stroke-width: 2; stroke: #000000" x="1000.9" y="314.4" width="160.8" height="52"/>
    <text font-size="12.8" style="fill: #000000;text-anchor:start;font-family:monospace;font-style:normal;font-weight:normal" x="1003.9" y="328.4">+readFile()</text>
    <text font-size="12.8" style="fill: #000000;text-anchor:start;font-family:monospace;font-style:normal;font-weight:normal" x="1003.9" y="344.4">+rtfHeader()</text>
    <text font-size="12.8" style="fill: #000000;text-anchor:start;font-family:monospace;font-style:normal;font-weight:normal" x="1003.9" y="360.4">+writeFile()</text>
  </g>
  <g>
    <rect style="fill: #ffffff" x="1001.2" y="77.2" width="164.05" height="28"/>
    <rect style="fill: none; fill-opacity:0; stroke-width: 2; stroke: #000000" x="1001.2" y="77.2" width="164.05" height="28"/>
    <text font-size="16" style="fill: #000000;text-anchor:middle;font-family:sans-serif;font-style:normal;font-weight:700" x="1083.23" y="96.2">TXTPdfConverter</text>
    <rect style="fill: #ffffff" x="1001.2" y="105.2" width="164.05" height="8"/>
    <rect style="fill: none; fill-opacity:0; stroke-width: 2; stroke: #000000" x="1001.2" y="105.2" width="164.05" height="8"/>
    <rect style="fill: #ffffff" x="1001.2" y="113.2" width="164.05" height="52"/>
    <rect style="fill: none; fill-opacity:0; stroke-width: 2; stroke: #000000" x="1001.2" y="113.2" width="164.05" height="52"/>
    <text font-size="12.8" style="fill: #000000;text-anchor:start;font-family:monospace;font-style:normal;font-weight:normal" x="1004.2" y="127.2">+latexHeader()</text>
    <text font-size="12.8" style="fill: #000000;text-anchor:start;font-family:monospace;font-style:normal;font-weight:normal" x="1004.2" y="143.2">+readFile()</text>
    <text font-size="12.8" style="fill: #000000;text-anchor:start;font-family:monospace;font-style:normal;font-weight:normal" x="1004.2" y="159.2">+writrFile()</text>
  </g>
  <g>
    <rect style="fill: #ffffff" x="816.5" y="334" width="166.6" height="28"/>
    <rect style="fill: none; fill-opacity:0; stroke-width: 2; stroke: #000000" x="816.5" y="334" width="166.6" height="28"/>
    <text font-size="16" style="fill: #000000;text-anchor:middle;font-family:sans-serif;font-style:normal;font-weight:700" x="899.8" y="353">TXTOdtConverter</text>
    <rect style="fill: #ffffff" x="816.5" y="362" width="166.6" height="8"/>
    <rect style="fill: none; fill-opacity:0; stroke-width: 2; stroke: #000000" x="816.5" y="362" width="166.6" height="8"/>
    <rect style="fill: #ffffff" x="816.5" y="370" width="166.6" height="132"/>
    <rect style="fill: none; fill-opacity:0; stroke-width: 2; stroke: #000000" x="816.5" y="370" width="166.6" height="132"/>
    <text font-size="12.8" style="fill: #000000;text-anchor:start;font-family:monospace;font-style:normal;font-weight:normal" x="819.5" y="384">+extractTextXML()</text>
    <text font-size="12.8" style="fill: #000000;text-anchor:start;font-family:monospace;font-style:normal;font-weight:normal" x="819.5" y="400">+odtContent()</text>
    <text font-size="12.8" style="fill: #000000;text-anchor:start;font-family:monospace;font-style:normal;font-weight:normal" x="819.5" y="416">+odtContent(aStream)</text>
    <text font-size="12.8" style="fill: #000000;text-anchor:start;font-family:monospace;font-style:normal;font-weight:normal" x="819.5" y="432">+odtHeader()</text>
    <text font-size="12.8" style="fill: #000000;text-anchor:start;font-family:monospace;font-style:normal;font-weight:normal" x="819.5" y="448">+odtManifest()</text>
    <text font-size="12.8" style="fill: #000000;text-anchor:start;font-family:monospace;font-style:normal;font-weight:normal" x="819.5" y="464">+odtStyle()</text>
    <text font-size="12.8" style="fill: #000000;text-anchor:start;font-family:monospace;font-style:normal;font-weight:normal" x="819.5" y="480">+readFile()</text>
    <text font-size="12.8" style="fill: #000000;text-anchor:start;font-family:monospace;font-style:normal;font-weight:normal" x="819.5" y="496">+writeFile()</text>
  </g>
  <g>
    <polyline style="fill: none; fill-opacity:0; stroke-width: 2; stroke: #000000" points="758.742,228 965.05,228 965.05,269.6 1173.59,269.6 "/>
    <polygon style="fill: #ffffff" points="758.742,220 742.742,228 758.742,236 "/>
    <polygon style="fill: none; fill-opacity:0; stroke-width: 2; stroke: #000000" points="758.742,220 742.742,228 758.742,236 "/>
  </g>
  <g>
    <polyline style="fill: none; fill-opacity:0; stroke-width: 2; stroke: #000000" points="758.742,228 786,228 786,418 815.495,418 "/>
    <polygon style="fill: #ffffff" points="758.742,220 742.742,228 758.742,236 "/>
    <polygon style="fill: none; fill-opacity:0; stroke-width: 2; stroke: #000000" points="758.742,220 742.742,228 758.742,236 "/>
  </g>
  <g>
    <polyline style="fill: none; fill-opacity:0; stroke-width: 2; stroke: #000000" points="758.699,228 878,228 878,324.4 1000.9,324.4 "/>
    <polygon style="fill: #ffffff" points="758.699,220 742.699,228 758.699,236 "/>
    <polygon style="fill: none; fill-opacity:0; stroke-width: 2; stroke: #000000" points="758.699,220 742.699,228 758.699,236 "/>
  </g>
  <g>
    <polyline style="fill: none; fill-opacity:0; stroke-width: 2; stroke: #000000" points="758.742,228 878.35,228 878.35,121.2 1000.19,121.2 "/>
    <polygon style="fill: #ffffff" points="758.742,220 742.742,228 758.742,236 "/>
    <polygon style="fill: none; fill-opacity:0; stroke-width: 2; stroke: #000000" points="758.742,220 742.742,228 758.742,236 "/>
  </g>
  <g>
    <polyline style="fill: none; fill-opacity:0; stroke-width: 2; stroke: #000000" points="758.742,228 786.4,228 786.4,75.8 816.295,75.8 "/>
    <polygon style="fill: #ffffff" points="758.742,220 742.742,228 758.742,236 "/>
    <polygon style="fill: none; fill-opacity:0; stroke-width: 2; stroke: #000000" points="758.742,220 742.742,228 758.742,236 "/>
  </g>
  <g>
    <polyline style="fill: none; fill-opacity:0; stroke-width: 2; stroke: #000000" points="758.742,228 964.75,228 964.75,173 1172.99,173 "/>
    <polygon style="fill: #ffffff" points="758.742,220 742.742,228 758.742,236 "/>
    <polygon style="fill: none; fill-opacity:0; stroke-width: 2; stroke: #000000" points="758.742,220 742.742,228 758.742,236 "/>
  </g>
  <g>
    <polyline style="fill: none; fill-opacity:0; stroke-width: 2; stroke: #000000" points="506.472,193 528.147,193 528.147,228 560.995,228 "/>
    <polygon style="fill: #ffffff" points="481.3,193 495.3,188.2 509.3,193 495.3,197.8 "/>
    <polygon style="fill: none; fill-opacity:0; stroke-width: 2; stroke: #000000" points="481.3,193 495.3,188.2 509.3,193 495.3,197.8 "/>
  </g>
</svg>
